<svg xmlns="http://www.w3.org/2000/svg" viewBox="0 0 400 200" width="400" height="200">
  <rect x="0" y="0" width="400" height="200" fill="#0d1117" rx="10"/>
  <g transform="translate(50, 50)">
    <rect x="0" y="0" width="100" height="50" fill="#0d1117" rx="5"/>
    <rect x="5" y="5" width="90" height="40" fill="#212529" rx="5"/>
    <rect x="10" y="10" width="80" height="30" fill="#00d4ff" rx="5"/>
    <g transform="translate(120, 0)">
      <rect x="0" y="0" width="50" height="50" fill="#0d1117" rx="5"/>
      <circle cx="25" cy="25" r="20" fill="#00d4ff"/>
      <path d="M 20 15 L 30 25 L 20 35 Z" fill="#00d4ff"/>
    </g>
  </g>
  <text x="150" y="120" font-family="monospace" font-size="24" fill="#00d4ff">TERMUX SECURITY</text>
  <g transform="translate(250, 50)">
    <rect x="0" y="0" width="100" height="100" fill="#0d1117" rx="10"/>
    <path d="M 10 10 L 90 10 L 90 90 L 10 90 Z M 20 20 L 80 20 L 80 80 L 20 80 Z" fill="none" stroke="#00d4ff" stroke-width="2"/>
  </g>
</svg>